<?xml version="1.0" encoding="UTF-8"?>
<svg width="26px" height="31px" viewBox="0 0 26 31" version="1.1" xmlns="http://www.w3.org/2000/svg" xmlns:xlink="http://www.w3.org/1999/xlink">
    <!-- Generator: Sketch 43.1 (39012) - http://www.bohemiancoding.com/sketch -->
    <title>68747470733a2f2f7261772e6769746875622e636f6d2f6964696f63632f636f72652f6d61737465722f696d616765732f73657373696f6e2e7376673f73616e6974697a653d74727565</title>
    <desc>Created with Sketch.</desc>
    <defs></defs>
    <g id="Page-1" stroke="none" stroke-width="1" fill="none" fill-rule="evenodd">
        <g id="68747470733a2f2f7261772e6769746875622e636f6d2f6964696f63632f636f72652f6d61737465722f696d616765732f73657373696f6e2e7376673f73616e6974697a653d74727565" transform="translate(13.000000, 15.500000) scale(-1, 1) translate(-13.000000, -15.500000) " fill-rule="nonzero" fill="#E37750">
            <path d="M25.92,17.676 C25.92,21.276018 24.6600126,24.3299875 22.14,26.838 C19.6199874,29.3460125 16.560018,30.6 12.96,30.6 C9.359982,30.6 6.3000126,29.3460125 3.78,26.838 C1.2599874,24.3299875 0,21.276018 0,17.676 C0,15.6119897 0.47399526,13.6560092 1.422,11.808 C2.37000474,9.95999076 3.6839916,8.42400612 5.364,7.2 C4.763997,5.5199916 4.08000384,4.17600504 3.312,3.168 C5.5920114,1.7279928 8.33998392,0.67200336 11.556,0 C11.7000007,1.63200816 12.0479972,3.21599232 12.6,4.752 C12.6720004,4.72799988 12.7919992,4.716 12.96,4.716 C16.560018,4.716 19.6199874,5.9759874 22.14,8.496 C24.6600126,11.0160126 25.92,14.075982 25.92,17.676 Z M14.076,20.268 L13.068,20.268 L12.168,23.472 L13.248,23.112 L12.852,24.444 L10.836,24.12 L10.836,22.5 L12.06,23.4 L11.412,19.224 L7.992,19.224 L7.992,28.944 C9.3120066,29.4960028 10.6079936,29.8199995 11.88,29.916 L14.076,20.268 Z M25.272,17.676 C25.272,14.2199827 24.0660121,11.3040119 21.654,8.928 C19.2419879,6.55198812 16.2960174,5.364 12.816,5.364 C13.4880034,7.164009 14.2919953,8.80799256 15.228,10.296 C16.5960068,10.2239996 17.3039998,10.188 17.352,10.188 C18.0240034,10.188 18.5279983,10.1999999 18.864,10.224 L18.864,10.872 C18.5759986,10.8479999 18.1440029,10.836 17.568,10.836 C16.559995,10.836 15.6960036,10.8959994 14.976,11.016 C14.976,11.4960024 15.2099977,12.2999944 15.678,13.428 C16.1460023,14.5560056 16.5599982,15.419997 16.92,16.02 L15.696,16.452 L15.696,17.64 L14.292,17.64 C14.4600008,18.3600036 14.9279962,18.7439998 15.696,18.792 L15.696,20.268 L14.472,20.268 L13.644,23.976 L20.052,27.756 C21.6840082,26.5799941 22.9619954,25.1100088 23.886,23.346 C24.8100046,21.5819912 25.272,19.6920101 25.272,17.676 Z M7.596,20.484 L7.596,19.224 C7.596,17.015989 7.4160018,15.0480086 7.056,13.32 C5.80799376,13.9680032 4.71600468,14.6279966 3.78,15.3 L3.528,14.724 C4.68000576,13.9079959 5.80799448,13.2360026 6.912,12.708 C6.5519982,10.9319911 6.10800264,9.30000744 5.58,7.812 C4.18799304,8.86800528 3.06600426,10.1459925 2.214,11.646 C1.36199574,13.1460075 0.85200084,14.7599914 0.684,16.488 L7.596,20.484 Z M14.724,13.788 C14.724,13.6439993 14.6580007,13.5300004 14.526,13.446 C14.3939993,13.3619996 14.2560007,13.32 14.112,13.32 C13.9679993,13.32 13.8300007,13.3619996 13.698,13.446 C13.5659993,13.5300004 13.5,13.6439993 13.5,13.788 C13.5,14.1240017 13.703998,14.292 14.112,14.292 C14.520002,14.292 14.724,14.1240017 14.724,13.788 Z" id="Q"></path>
        </g>
    </g>
</svg>